<svg width="64" xmlns="http://www.w3.org/2000/svg" height="64" fill="none"><defs><clipPath id="a" class="frame-clip frame-clip-def"><rect rx="0" ry="0" width="64" height="64" transform="matrix(1.000000, 0.000000, 0.000000, 1.000000, 0.000000, 0.000000)"/></clipPath></defs><g clip-path="url(#a)"><g class="fills"><rect rx="0" ry="0" width="64" height="64" transform="matrix(1.000000, 0.000000, 0.000000, 1.000000, 0.000000, 0.000000)" class="frame-background"/></g><g class="frame-children"><g style="opacity: 1;"><rect rx="4" ry="4" x="8" transform="matrix(1.000000, 0.000000, 0.000000, 1.000000, 0.000000, 0.000000)" width="48" height="64" style="fill: rgb(16, 48, 160); fill-opacity: 1;" class="fills"/></g><rect rx="4" ry="4" x="12" y="4" transform="matrix(1.000000, 0.000000, 0.000000, 1.000000, 0.000000, 0.000000)" width="40" height="40" style="fill: rgb(255, 255, 255); fill-opacity: 1;" class="fills"/><g style="fill: rgb(0, 0, 0);"><path d="M27.000,32.333L37.000,32.333L37.000,30.667L35.333,29.833C36.250,29.833,37.035,29.507,37.688,28.854C38.340,28.201,38.667,27.417,38.667,26.500L38.667,19.000C38.667,17.806,38.153,16.951,37.125,16.437C36.097,15.924,34.389,15.667,32.000,15.667C29.694,15.667,28.007,15.931,26.937,16.458C25.868,16.986,25.333,17.833,25.333,19.000L25.333,26.500C25.333,27.417,25.660,28.201,26.312,28.854C26.965,29.507,27.750,29.833,28.667,29.833L27.000,30.667L27.000,32.333ZZM29.083,28.167C28.722,28.167,28.424,28.049,28.187,27.813C27.951,27.576,27.833,27.278,27.833,26.917C27.833,26.556,27.951,26.257,28.187,26.021C28.424,25.785,28.722,25.667,29.083,25.667C29.444,25.667,29.743,25.785,29.979,26.021C30.215,26.257,30.333,26.556,30.333,26.917C30.333,27.278,30.215,27.576,29.979,27.813C29.743,28.049,29.444,28.167,29.083,28.167ZZM34.917,28.167C34.556,28.167,34.257,28.049,34.021,27.813C33.785,27.576,33.667,27.278,33.667,26.917C33.667,26.556,33.785,26.257,34.021,26.021C34.257,25.785,34.556,25.667,34.917,25.667C35.278,25.667,35.576,25.785,35.813,26.021C36.049,26.257,36.167,26.556,36.167,26.917C36.167,27.278,36.049,27.576,35.813,27.813C35.576,28.049,35.278,28.167,34.917,28.167ZZM27.833,24.000L27.833,19.000L36.167,19.000L36.167,24.000L27.833,24.000ZZM18.667,37.333C17.750,37.333,16.965,37.007,16.312,36.354C15.660,35.701,15.333,34.917,15.333,34.000L15.333,28.375C15.333,28.069,15.431,27.806,15.625,27.583C15.819,27.361,16.069,27.222,16.375,27.167C17.042,26.944,17.590,26.542,18.021,25.958C18.451,25.375,18.667,24.722,18.667,24.000C18.667,23.278,18.451,22.625,18.021,22.042C17.590,21.458,17.042,21.056,16.375,20.833C16.069,20.778,15.819,20.639,15.625,20.417C15.431,20.194,15.333,19.931,15.333,19.625L15.333,14.000C15.333,13.083,15.660,12.299,16.312,11.646C16.965,10.993,17.750,10.667,18.667,10.667L45.333,10.667C46.250,10.667,47.035,10.993,47.688,11.646C48.340,12.299,48.667,13.083,48.667,14.000L48.667,19.625C48.667,19.931,48.569,20.194,48.375,20.417C48.181,20.639,47.931,20.778,47.625,20.833C46.958,21.056,46.410,21.458,45.979,22.042C45.549,22.625,45.333,23.278,45.333,24.000C45.333,24.722,45.549,25.375,45.979,25.958C46.410,26.542,46.958,26.944,47.625,27.167C47.931,27.222,48.181,27.361,48.375,27.583C48.569,27.806,48.667,28.069,48.667,28.375L48.667,34.000C48.667,34.917,48.340,35.701,47.688,36.354C47.035,37.007,46.250,37.333,45.333,37.333L18.667,37.333ZZM18.667,34.000L45.333,34.000L45.333,29.750C44.306,29.139,43.493,28.326,42.896,27.313C42.299,26.299,42.000,25.194,42.000,24.000C42.000,22.806,42.299,21.701,42.896,20.688C43.493,19.674,44.306,18.861,45.333,18.250L45.333,14.000L18.667,14.000L18.667,18.250C19.694,18.861,20.507,19.674,21.104,20.688C21.701,21.701,22.000,22.806,22.000,24.000C22.000,25.194,21.701,26.299,21.104,27.313C20.507,28.326,19.694,29.139,18.667,29.750L18.667,34.000ZZM32.000,24.000Z" fill="ffffff" style="fill: rgb(31, 35, 41); fill-opacity: 1;" class="fills"/></g></g></g></svg>