<svg width="64" xmlns="http://www.w3.org/2000/svg" height="64" fill="none"><defs><clipPath id="a" class="frame-clip frame-clip-def"><rect rx="0" ry="0" width="64" height="64" transform="matrix(1.000000, 0.000000, 0.000000, 1.000000, 0.000000, 0.000000)"/></clipPath></defs><g clip-path="url(#a)"><g class="fills"><rect rx="0" ry="0" width="64" height="64" transform="matrix(1.000000, 0.000000, 0.000000, 1.000000, 0.000000, 0.000000)" class="frame-background"/></g><g class="frame-children"><rect rx="12" ry="12" x="8" y="8" transform="matrix(1.000000, 0.000000, 0.000000, 1.000000, 0.000000, 0.000000)" width="48" height="48" style="fill: rgb(0, 0, 0); fill-opacity: 1;" class="fills"/><path d="M18.661,41.657L16.000,41.657L23.127,22.000L26.026,22.000L33.246,41.657L30.611,41.657L26.448,29.995C26.440,29.972,26.432,29.949,26.424,29.927C26.177,29.226,25.893,28.361,25.570,27.334C25.566,27.322,25.562,27.309,25.558,27.297C25.549,27.267,25.540,27.237,25.530,27.208C25.204,26.166,24.813,24.856,24.356,23.276C24.346,23.242,24.336,23.208,24.326,23.174L24.801,23.174C24.326,24.863,23.916,26.255,23.569,27.350C23.558,27.384,23.547,27.418,23.537,27.452C23.208,28.488,22.933,29.329,22.713,29.974C22.711,29.981,22.708,29.988,22.706,29.995L18.661,41.657ZZM44.629,31.776L44.629,31.776ZC44.629,31.668,44.628,31.639,44.628,31.611C44.618,31.032,44.504,30.540,44.286,30.133C44.057,29.707,43.715,29.379,43.258,29.150C43.229,29.136,43.201,29.122,43.171,29.109C42.737,28.911,42.205,28.811,41.576,28.808C41.566,28.807,41.556,28.807,41.546,28.807C40.843,28.807,40.241,28.917,39.741,29.137C39.711,29.150,39.681,29.164,39.651,29.178C39.208,29.383,38.843,29.633,38.555,29.928C38.544,29.939,38.533,29.950,38.522,29.962C38.503,29.982,38.483,30.003,38.464,30.024C38.181,30.334,37.965,30.649,37.817,30.971L35.538,30.219C35.550,30.191,35.562,30.163,35.574,30.136C35.948,29.278,36.445,28.605,37.066,28.115C37.116,28.075,37.167,28.037,37.218,27.999C37.818,27.554,38.475,27.234,39.187,27.040C39.236,27.026,39.284,27.014,39.332,27.001C40.008,26.828,40.676,26.736,41.338,26.724C41.386,26.723,41.433,26.723,41.480,26.723C41.509,26.723,41.538,26.723,41.567,26.724C42.038,26.730,42.568,26.789,43.159,26.901C43.772,27.017,44.364,27.244,44.934,27.581C44.949,27.590,44.963,27.598,44.977,27.607C45.069,27.662,45.158,27.721,45.244,27.784C45.706,28.123,46.098,28.580,46.419,29.156C46.422,29.161,46.424,29.165,46.427,29.170C46.445,29.202,46.462,29.234,46.478,29.267C46.822,29.939,46.996,30.816,47.000,31.899C47.000,31.911,47.000,31.923,47.000,31.934L47.000,41.657L44.668,41.657L44.668,39.652L44.510,39.652C44.346,39.989,44.084,40.337,43.725,40.695C43.719,40.701,43.713,40.708,43.706,40.714C43.344,41.072,42.876,41.374,42.301,41.618C42.291,41.622,42.281,41.626,42.270,41.631C41.703,41.868,41.022,41.991,40.226,42.000C40.196,42.000,40.166,42.000,40.136,42.000C40.092,42.000,40.049,42.000,40.006,41.999C39.126,41.983,38.324,41.808,37.600,41.472C37.558,41.453,37.517,41.433,37.477,41.413C36.775,41.064,36.212,40.569,35.788,39.929C35.722,39.828,35.660,39.724,35.604,39.618C35.290,39.026,35.128,38.336,35.117,37.548C35.117,37.520,35.116,37.491,35.116,37.462C35.116,36.650,35.271,35.984,35.579,35.465C35.592,35.445,35.604,35.424,35.617,35.404C35.646,35.359,35.675,35.314,35.705,35.270C36.016,34.823,36.414,34.462,36.898,34.188C36.917,34.178,36.935,34.167,36.954,34.157C37.020,34.121,37.086,34.087,37.153,34.054C37.622,33.819,38.130,33.637,38.679,33.507C38.721,33.497,38.763,33.487,38.805,33.478C39.048,33.424,39.292,33.374,39.536,33.328C39.971,33.247,40.408,33.178,40.847,33.121C40.875,33.118,40.902,33.114,40.929,33.111C41.746,33.005,42.419,32.922,42.948,32.863C42.964,32.861,42.979,32.859,42.995,32.858C43.548,32.796,43.959,32.691,44.227,32.541C44.495,32.392,44.629,32.136,44.629,31.776ZZM44.629,36.327L44.629,34.282C44.623,34.289,44.617,34.296,44.610,34.302C44.511,34.405,44.317,34.498,44.030,34.583C44.018,34.586,44.007,34.589,43.996,34.592C43.689,34.680,43.340,34.757,42.950,34.825C42.928,34.829,42.905,34.833,42.883,34.837C42.831,34.845,42.779,34.854,42.727,34.862C42.405,34.915,42.092,34.961,41.786,35.000C41.747,35.005,41.709,35.010,41.671,35.015C41.296,35.061,40.996,35.097,40.770,35.123C40.761,35.125,40.751,35.126,40.742,35.127C40.171,35.197,39.637,35.318,39.141,35.490C38.680,35.649,38.303,35.877,38.013,36.174C37.991,36.196,37.970,36.219,37.949,36.242C37.880,36.318,37.819,36.400,37.766,36.488C37.599,36.767,37.511,37.108,37.502,37.510C37.501,37.534,37.501,37.557,37.501,37.581C37.501,37.604,37.501,37.628,37.502,37.652C37.514,38.130,37.645,38.533,37.896,38.860C37.968,38.954,38.048,39.042,38.134,39.123C38.357,39.333,38.629,39.501,38.948,39.627C38.957,39.631,38.967,39.635,38.976,39.639C39.016,39.654,39.056,39.668,39.096,39.682C39.523,39.829,40.006,39.903,40.544,39.903C40.572,39.903,40.599,39.902,40.626,39.902C41.469,39.892,42.184,39.720,42.771,39.388C42.804,39.369,42.836,39.350,42.869,39.331C43.427,38.996,43.855,38.568,44.154,38.049C44.174,38.015,44.193,37.980,44.212,37.946C44.490,37.427,44.629,36.888,44.629,36.327ZZM29.662,36.169L19.583,36.169L19.583,33.979L29.662,33.979L29.662,36.169ZZ" font-size="12" style="fill: rgb(255, 255, 255);" class="fills"/></g></g></svg>