<svg width="64" xmlns="http://www.w3.org/2000/svg" height="64" fill="none"><defs><clipPath id="a" class="frame-clip frame-clip-def"><rect rx="0" ry="0" width="64" height="64" transform="matrix(1.000000, 0.000000, 0.000000, 1.000000, 0.000000, 0.000000)"/></clipPath></defs><g clip-path="url(#a)"><g class="fills"><rect rx="0" ry="0" width="64" height="64" transform="matrix(1.000000, 0.000000, 0.000000, 1.000000, 0.000000, 0.000000)" class="frame-background"/></g><g class="frame-children"><rect rx="12" ry="12" x="8" y="8" transform="matrix(1.000000, 0.000000, 0.000000, 1.000000, 0.000000, 0.000000)" width="48" height="48" style="fill: rgb(255, 255, 255); fill-opacity: 1;" class="fills"/><path d="M18.700,41.000L16.000,41.000L23.233,21.000L26.174,21.000L33.500,41.000L30.826,41.000L26.602,29.134C26.594,29.111,26.585,29.088,26.577,29.065C26.327,28.352,26.038,27.472,25.711,26.427C25.707,26.414,25.703,26.402,25.699,26.389C25.690,26.359,25.680,26.329,25.671,26.299C25.340,25.239,24.943,23.906,24.479,22.298C24.469,22.264,24.459,22.229,24.449,22.195L24.930,22.195C24.449,23.913,24.032,25.329,23.681,26.443C23.670,26.478,23.659,26.512,23.648,26.547C23.314,27.601,23.035,28.457,22.812,29.113C22.810,29.120,22.807,29.127,22.805,29.134L18.700,41.000ZZM29.864,35.416L19.636,35.416L19.636,33.188L29.864,33.188L29.864,35.416ZZ" font-size="12" style="fill: rgb(0, 0, 0);" class="fills"/><path d="M40.143,39.857L35.000,39.857L35.000,38.143L40.143,38.143L40.143,33.000L41.857,33.000L41.857,38.143L47.000,38.143L47.000,39.857L41.857,39.857L41.857,45.000L40.143,45.000L40.143,39.857ZZ" fill="ffffff" style="fill: rgb(0, 0, 0); fill-opacity: 1;" class="fills"/><path d="M40.143,25.857L35.000,25.857L35.000,24.143L40.143,24.143L40.143,19.000L41.857,19.000L41.857,24.143L47.000,24.143L47.000,25.857L41.857,25.857L41.857,31.000L40.143,31.000L40.143,25.857ZZ" fill="ffffff" style="fill: rgb(0, 0, 0); fill-opacity: 1;" class="fills"/></g></g></svg>