<svg width="136" xmlns="http://www.w3.org/2000/svg" height="64" fill="none"><defs><clipPath id="a" class="frame-clip frame-clip-def"><rect rx="0" ry="0" width="136" height="64" transform="matrix(1.000000, 0.000000, 0.000000, 1.000000, 0.000000, 0.000000)"/></clipPath></defs><g clip-path="url(#a)"><g class="fills"><rect rx="0" ry="0" width="136" height="64" transform="matrix(1.000000, 0.000000, 0.000000, 1.000000, 0.000000, 0.000000)" class="frame-background"/></g><g class="frame-children"><rect rx="12" ry="12" x="8" y="8" transform="matrix(1.000000, 0.000000, 0.000000, 1.000000, 0.000000, 0.000000)" width="120" height="48" style="fill: rgb(255, 255, 255); fill-opacity: 1;" class="fills"/><path d="M104.000,38.000L94.000,28.000L114.000,28.000L104.000,38.000ZZ" fill="ffffff" class="fills" style="fill: rgb(0, 0, 0);"/><path d="M8,32 h72 a0,0 0 0 1 0,0 v24 a0,0 0 0 1 0,0 h-60 a12,12 0 0 1 -12,-12 v-12 a0,0 0 0 1 0,0 z" transform="matrix(1.000000, 0.000000, 0.000000, 1.000000, 0.000000, 0.000000)" style="fill: rgb(221, 12, 57); fill-opacity: 1;" class="fills"/><path d="M20,8 h60 a0,0 0 0 1 0,0 v24 a0,0 0 0 1 0,0 h-72 a0,0 0 0 1 0,0 v-12 a12,12 0 0 1 12,-12 z" transform="matrix(1.000000, 0.000000, 0.000000, 1.000000, 0.000000, 0.000000)" style="fill: rgb(255, 255, 255); fill-opacity: 1;" class="fills"/></g></g></svg>