<svg width="64" xmlns="http://www.w3.org/2000/svg" height="64" fill="none"><defs><clipPath id="a" class="frame-clip frame-clip-def"><rect rx="0" ry="0" width="64" height="64" transform="matrix(1.000000, 0.000000, 0.000000, 1.000000, 0.000000, 0.000000)"/></clipPath></defs><g clip-path="url(#a)"><g class="fills"><rect rx="0" ry="0" width="64" height="64" transform="matrix(1.000000, 0.000000, 0.000000, 1.000000, 0.000000, 0.000000)" class="frame-background"/></g><g class="frame-children"><rect rx="12" ry="12" x="8" y="8" transform="matrix(1.000000, 0.000000, 0.000000, 1.000000, 0.000000, 0.000000)" width="48" height="48" style="fill: rgb(255, 255, 255); fill-opacity: 1;" class="fills"/><path d="M19.661,41.657L17.000,41.657L24.127,22.000L27.026,22.000L34.246,41.657L31.611,41.657L27.448,29.995C27.440,29.972,27.432,29.949,27.424,29.927C27.177,29.226,26.893,28.361,26.570,27.334C26.566,27.322,26.562,27.309,26.558,27.297C26.549,27.267,26.540,27.237,26.530,27.208C26.204,26.166,25.813,24.856,25.356,23.276C25.346,23.242,25.336,23.208,25.326,23.174L25.801,23.174C25.326,24.863,24.916,26.255,24.569,27.350C24.558,27.384,24.547,27.418,24.537,27.452C24.208,28.488,23.933,29.329,23.713,29.974C23.711,29.981,23.708,29.988,23.706,29.995L19.661,41.657ZZM45.629,31.776L45.629,31.776ZC45.629,31.668,45.628,31.639,45.628,31.611C45.618,31.032,45.504,30.540,45.286,30.133C45.057,29.707,44.715,29.379,44.258,29.150C44.229,29.136,44.201,29.122,44.171,29.109C43.737,28.911,43.205,28.811,42.576,28.808C42.566,28.807,42.556,28.807,42.546,28.807C41.843,28.807,41.241,28.917,40.741,29.137C40.711,29.150,40.681,29.164,40.651,29.178C40.208,29.383,39.843,29.633,39.555,29.928C39.544,29.939,39.533,29.950,39.522,29.962C39.503,29.982,39.483,30.003,39.464,30.024C39.181,30.334,38.965,30.649,38.817,30.971L36.538,30.219C36.550,30.191,36.562,30.163,36.574,30.136C36.948,29.278,37.445,28.605,38.066,28.115C38.116,28.075,38.167,28.037,38.218,27.999C38.818,27.554,39.475,27.234,40.187,27.040C40.236,27.026,40.284,27.014,40.332,27.001C41.008,26.828,41.676,26.736,42.338,26.724C42.386,26.723,42.433,26.723,42.480,26.723C42.509,26.723,42.538,26.723,42.567,26.724C43.038,26.730,43.568,26.789,44.159,26.901C44.772,27.017,45.364,27.244,45.934,27.581C45.949,27.590,45.963,27.598,45.977,27.607C46.069,27.662,46.158,27.721,46.244,27.784C46.706,28.123,47.098,28.580,47.419,29.156C47.422,29.161,47.424,29.165,47.427,29.170C47.445,29.202,47.462,29.234,47.478,29.267C47.822,29.939,47.996,30.816,48.000,31.899C48.000,31.911,48.000,31.923,48.000,31.934L48.000,41.657L45.668,41.657L45.668,39.652L45.510,39.652C45.346,39.989,45.084,40.337,44.725,40.695C44.719,40.701,44.713,40.708,44.706,40.714C44.344,41.072,43.876,41.374,43.301,41.618C43.291,41.622,43.281,41.626,43.270,41.631C42.703,41.868,42.022,41.991,41.226,42.000C41.196,42.000,41.166,42.000,41.136,42.000C41.092,42.000,41.049,42.000,41.006,41.999C40.126,41.983,39.324,41.808,38.600,41.472C38.558,41.453,38.517,41.433,38.477,41.413C37.775,41.064,37.212,40.569,36.788,39.929C36.722,39.828,36.660,39.724,36.604,39.618C36.290,39.026,36.128,38.336,36.117,37.548C36.117,37.520,36.116,37.491,36.116,37.462C36.116,36.650,36.271,35.984,36.579,35.465C36.592,35.445,36.604,35.424,36.617,35.404C36.646,35.359,36.675,35.314,36.705,35.270C37.016,34.823,37.414,34.462,37.898,34.188C37.917,34.178,37.935,34.167,37.954,34.157C38.020,34.121,38.086,34.087,38.153,34.054C38.622,33.819,39.130,33.637,39.679,33.507C39.721,33.497,39.763,33.487,39.805,33.478C40.048,33.424,40.292,33.374,40.536,33.328C40.971,33.247,41.408,33.178,41.847,33.121C41.875,33.118,41.902,33.114,41.929,33.111C42.746,33.005,43.419,32.922,43.948,32.863C43.964,32.861,43.979,32.859,43.995,32.858C44.548,32.796,44.959,32.691,45.227,32.541C45.495,32.392,45.629,32.136,45.629,31.776ZZM45.629,36.327L45.629,34.282C45.623,34.289,45.617,34.296,45.610,34.302C45.511,34.405,45.317,34.498,45.030,34.583C45.018,34.586,45.007,34.589,44.996,34.592C44.689,34.680,44.340,34.757,43.950,34.825C43.928,34.829,43.905,34.833,43.883,34.837C43.831,34.845,43.779,34.854,43.727,34.862C43.405,34.915,43.092,34.961,42.786,35.000C42.747,35.005,42.709,35.010,42.671,35.015C42.296,35.061,41.996,35.097,41.770,35.123C41.761,35.125,41.751,35.126,41.742,35.127C41.171,35.197,40.637,35.318,40.141,35.490C39.680,35.649,39.303,35.877,39.013,36.174C38.991,36.196,38.970,36.219,38.949,36.242C38.880,36.318,38.819,36.400,38.766,36.488C38.599,36.767,38.511,37.108,38.502,37.510C38.501,37.534,38.501,37.557,38.501,37.581C38.501,37.604,38.501,37.628,38.502,37.652C38.514,38.130,38.645,38.533,38.896,38.860C38.968,38.954,39.048,39.042,39.134,39.123C39.357,39.333,39.629,39.501,39.948,39.627C39.957,39.631,39.967,39.635,39.976,39.639C40.016,39.654,40.056,39.668,40.096,39.682C40.523,39.829,41.006,39.903,41.544,39.903C41.572,39.903,41.599,39.902,41.626,39.902C42.469,39.892,43.184,39.720,43.771,39.388C43.804,39.369,43.836,39.350,43.869,39.331C44.427,38.996,44.855,38.568,45.154,38.049C45.174,38.015,45.193,37.980,45.212,37.946C45.490,37.427,45.629,36.888,45.629,36.327ZZM30.662,36.169L20.583,36.169L20.583,33.979L30.662,33.979L30.662,36.169ZZ" font-size="12" style="fill: rgb(0, 0, 0);" class="fills"/></g></g></svg>